<mxfile host="app.diagrams.net" agent="Mozilla/5.0 (Windows NT 10.0; Win64; x64) AppleWebKit/537.36 (KHTML, like Gecko) Chrome/136.0.0.0 Safari/537.36 Edg/136.0.0.0" version="27.0.9">
  <diagram id="prtHgNgQTEPvFCAcTncT" name="Page-1">
    <mxGraphModel dx="864" dy="492" grid="1" gridSize="10" guides="1" tooltips="1" connect="1" arrows="1" fold="1" page="1" pageScale="1" pageWidth="827" pageHeight="1169" background="#ffffff" math="0" shadow="0">
      <root>
        <mxCell id="0" />
        <mxCell id="1" parent="0" />
        <mxCell id="dNxyNK7c78bLwvsdeMH5-11" value="AUTOMATED&amp;nbsp; VEHICLE COUNTER" style="swimlane;html=1;startSize=20;horizontal=1;containerType=tree;glass=0;fillColor=#f5f5f5;strokeColor=#666666;gradientColor=#b3b3b3;" parent="1" vertex="1">
          <mxGeometry x="70" y="50" width="710" height="1060" as="geometry" />
        </mxCell>
        <mxCell id="KH2dmFKL13_Q_JByAnSe-4" value="MONITORING UNIT" style="swimlane;whiteSpace=wrap;html=1;fillColor=#fff2cc;strokeColor=#d6b656;gradientColor=#ffd966;" parent="dNxyNK7c78bLwvsdeMH5-11" vertex="1">
          <mxGeometry x="30" y="130" width="650" height="340" as="geometry" />
        </mxCell>
        <mxCell id="KH2dmFKL13_Q_JByAnSe-7" value="CAMERA" style="shape=parallelogram;perimeter=parallelogramPerimeter;whiteSpace=wrap;html=1;fixedSize=1;fillColor=#f8cecc;strokeColor=#b85450;gradientColor=#ea6b66;" parent="KH2dmFKL13_Q_JByAnSe-4" vertex="1">
          <mxGeometry x="111" y="60" width="140" height="70" as="geometry" />
        </mxCell>
        <mxCell id="KH2dmFKL13_Q_JByAnSe-39" style="edgeStyle=orthogonalEdgeStyle;rounded=0;orthogonalLoop=1;jettySize=auto;html=1;exitX=1;exitY=0.5;exitDx=0;exitDy=0;" parent="KH2dmFKL13_Q_JByAnSe-4" source="KH2dmFKL13_Q_JByAnSe-8" target="KH2dmFKL13_Q_JByAnSe-29" edge="1">
          <mxGeometry relative="1" as="geometry" />
        </mxCell>
        <mxCell id="KH2dmFKL13_Q_JByAnSe-8" value="CORAL SBC" style="rounded=0;whiteSpace=wrap;html=1;fillColor=#d5e8d4;strokeColor=#82b366;gradientColor=#97d077;" parent="KH2dmFKL13_Q_JByAnSe-4" vertex="1">
          <mxGeometry x="80" y="170" width="120" height="60" as="geometry" />
        </mxCell>
        <mxCell id="KH2dmFKL13_Q_JByAnSe-9" value="CLOUD BASED SERVER" style="rounded=0;whiteSpace=wrap;html=1;fillColor=#d5e8d4;strokeColor=#82b366;gradientColor=#97d077;" parent="KH2dmFKL13_Q_JByAnSe-4" vertex="1">
          <mxGeometry x="421" y="50" width="120" height="60" as="geometry" />
        </mxCell>
        <mxCell id="KH2dmFKL13_Q_JByAnSe-21" style="edgeStyle=orthogonalEdgeStyle;rounded=0;orthogonalLoop=1;jettySize=auto;html=1;entryX=0.75;entryY=1;entryDx=0;entryDy=0;" parent="KH2dmFKL13_Q_JByAnSe-4" source="KH2dmFKL13_Q_JByAnSe-14" target="KH2dmFKL13_Q_JByAnSe-9" edge="1">
          <mxGeometry relative="1" as="geometry" />
        </mxCell>
        <mxCell id="KH2dmFKL13_Q_JByAnSe-14" value="WIFI ROUTER" style="ellipse;whiteSpace=wrap;html=1;fillColor=#f5f5f5;gradientColor=#b3b3b3;strokeColor=#666666;" parent="KH2dmFKL13_Q_JByAnSe-4" vertex="1">
          <mxGeometry x="471" y="150" width="120" height="80" as="geometry" />
        </mxCell>
        <mxCell id="KH2dmFKL13_Q_JByAnSe-17" style="edgeStyle=orthogonalEdgeStyle;rounded=0;orthogonalLoop=1;jettySize=auto;html=1;exitX=0.5;exitY=1;exitDx=0;exitDy=0;entryX=0.642;entryY=0;entryDx=0;entryDy=0;entryPerimeter=0;" parent="KH2dmFKL13_Q_JByAnSe-4" source="KH2dmFKL13_Q_JByAnSe-7" target="KH2dmFKL13_Q_JByAnSe-8" edge="1">
          <mxGeometry relative="1" as="geometry" />
        </mxCell>
        <mxCell id="KH2dmFKL13_Q_JByAnSe-29" value="4G MODULE" style="shape=step;perimeter=stepPerimeter;whiteSpace=wrap;html=1;fixedSize=1;fillColor=#f5f5f5;gradientColor=#b3b3b3;strokeColor=#666666;" parent="KH2dmFKL13_Q_JByAnSe-4" vertex="1">
          <mxGeometry x="251" y="175" width="130" height="50" as="geometry" />
        </mxCell>
        <mxCell id="KH2dmFKL13_Q_JByAnSe-41" value="BATTERY SOC MONITORING CIRCUIT" style="rounded=0;whiteSpace=wrap;html=1;fillColor=#fff2cc;gradientColor=#ffd966;strokeColor=#d6b656;" parent="KH2dmFKL13_Q_JByAnSe-4" vertex="1">
          <mxGeometry x="131" y="260" width="99" height="50" as="geometry" />
        </mxCell>
        <mxCell id="KH2dmFKL13_Q_JByAnSe-42" style="edgeStyle=orthogonalEdgeStyle;rounded=0;orthogonalLoop=1;jettySize=auto;html=1;exitX=0.25;exitY=0;exitDx=0;exitDy=0;entryX=0.633;entryY=1.017;entryDx=0;entryDy=0;entryPerimeter=0;" parent="KH2dmFKL13_Q_JByAnSe-4" source="KH2dmFKL13_Q_JByAnSe-41" target="KH2dmFKL13_Q_JByAnSe-8" edge="1">
          <mxGeometry relative="1" as="geometry" />
        </mxCell>
        <mxCell id="KH2dmFKL13_Q_JByAnSe-36" style="edgeStyle=orthogonalEdgeStyle;rounded=0;orthogonalLoop=1;jettySize=auto;html=1;exitX=0.25;exitY=0;exitDx=0;exitDy=0;entryX=0.25;entryY=1;entryDx=0;entryDy=0;dashed=1;" parent="dNxyNK7c78bLwvsdeMH5-11" source="KH2dmFKL13_Q_JByAnSe-5" target="KH2dmFKL13_Q_JByAnSe-4" edge="1">
          <mxGeometry relative="1" as="geometry" />
        </mxCell>
        <mxCell id="KH2dmFKL13_Q_JByAnSe-5" value="POWER UNIT" style="swimlane;whiteSpace=wrap;html=1;fillColor=#e6d0de;strokeColor=#996185;gradientColor=#d5739d;startSize=23;" parent="dNxyNK7c78bLwvsdeMH5-11" vertex="1">
          <mxGeometry x="30" y="520" width="650" height="260" as="geometry" />
        </mxCell>
        <mxCell id="KH2dmFKL13_Q_JByAnSe-10" value="SOLAR PANEL" style="rounded=0;whiteSpace=wrap;html=1;fillColor=#f8cecc;strokeColor=#b85450;gradientColor=#ea6b66;" parent="KH2dmFKL13_Q_JByAnSe-5" vertex="1">
          <mxGeometry x="121" y="60" width="120" height="60" as="geometry" />
        </mxCell>
        <mxCell id="KH2dmFKL13_Q_JByAnSe-24" style="edgeStyle=orthogonalEdgeStyle;rounded=0;orthogonalLoop=1;jettySize=auto;html=1;exitX=1;exitY=0.5;exitDx=0;exitDy=0;entryX=0.5;entryY=0;entryDx=0;entryDy=0;" parent="KH2dmFKL13_Q_JByAnSe-5" source="KH2dmFKL13_Q_JByAnSe-11" target="KH2dmFKL13_Q_JByAnSe-13" edge="1">
          <mxGeometry relative="1" as="geometry" />
        </mxCell>
        <mxCell id="KH2dmFKL13_Q_JByAnSe-11" value="BATTERY" style="rounded=0;whiteSpace=wrap;html=1;fillColor=#ffcd28;strokeColor=#d79b00;gradientColor=#ffa500;" parent="KH2dmFKL13_Q_JByAnSe-5" vertex="1">
          <mxGeometry x="290" y="60" width="71" height="60" as="geometry" />
        </mxCell>
        <mxCell id="KH2dmFKL13_Q_JByAnSe-23" style="edgeStyle=orthogonalEdgeStyle;rounded=0;orthogonalLoop=1;jettySize=auto;html=1;exitX=0.75;exitY=0;exitDx=0;exitDy=0;" parent="KH2dmFKL13_Q_JByAnSe-5" source="KH2dmFKL13_Q_JByAnSe-12" target="KH2dmFKL13_Q_JByAnSe-11" edge="1">
          <mxGeometry relative="1" as="geometry" />
        </mxCell>
        <mxCell id="KH2dmFKL13_Q_JByAnSe-12" value="CHARGE CONTROLLER" style="rounded=0;whiteSpace=wrap;html=1;fillColor=#dae8fc;gradientColor=#7ea6e0;strokeColor=#6c8ebf;" parent="KH2dmFKL13_Q_JByAnSe-5" vertex="1">
          <mxGeometry x="211" y="160" width="120" height="60" as="geometry" />
        </mxCell>
        <mxCell id="KH2dmFKL13_Q_JByAnSe-13" value="STEP DOWN CIRCUIT" style="rounded=0;whiteSpace=wrap;html=1;fillColor=#fff2cc;gradientColor=#ffd966;strokeColor=#d6b656;" parent="KH2dmFKL13_Q_JByAnSe-5" vertex="1">
          <mxGeometry x="391" y="160" width="80" height="40" as="geometry" />
        </mxCell>
        <mxCell id="KH2dmFKL13_Q_JByAnSe-22" style="edgeStyle=orthogonalEdgeStyle;rounded=0;orthogonalLoop=1;jettySize=auto;html=1;exitX=0.5;exitY=1;exitDx=0;exitDy=0;entryX=0.175;entryY=0.017;entryDx=0;entryDy=0;entryPerimeter=0;" parent="KH2dmFKL13_Q_JByAnSe-5" source="KH2dmFKL13_Q_JByAnSe-10" target="KH2dmFKL13_Q_JByAnSe-12" edge="1">
          <mxGeometry relative="1" as="geometry" />
        </mxCell>
        <mxCell id="KH2dmFKL13_Q_JByAnSe-44" value="&lt;font style=&quot;font-size: 18px;&quot; face=&quot;Comic Sans MS&quot;&gt;BY NATHAN MYRIE (620155753)&lt;/font&gt;" style="rounded=0;whiteSpace=wrap;html=1;" parent="dNxyNK7c78bLwvsdeMH5-11" vertex="1">
          <mxGeometry x="174" y="40" width="340" height="60" as="geometry" />
        </mxCell>
        <mxCell id="KH2dmFKL13_Q_JByAnSe-46" value="KEY" style="swimlane;horizontal=0;whiteSpace=wrap;html=1;fillColor=#f5f5f5;gradientColor=#b3b3b3;strokeColor=#666666;" parent="dNxyNK7c78bLwvsdeMH5-11" vertex="1">
          <mxGeometry x="30" y="800" width="650" height="200" as="geometry" />
        </mxCell>
        <mxCell id="KH2dmFKL13_Q_JByAnSe-49" value="OFF THE SHELF DEVICE" style="rounded=0;whiteSpace=wrap;html=1;fillColor=#dae8fc;gradientColor=#7ea6e0;strokeColor=#6c8ebf;" parent="KH2dmFKL13_Q_JByAnSe-46" vertex="1">
          <mxGeometry x="50" y="20" width="120" height="60" as="geometry" />
        </mxCell>
        <mxCell id="KH2dmFKL13_Q_JByAnSe-50" value="POWER CONTROL AND MONITORING " style="rounded=0;whiteSpace=wrap;html=1;fillColor=#fff2cc;gradientColor=#ffd966;strokeColor=#d6b656;" parent="KH2dmFKL13_Q_JByAnSe-46" vertex="1">
          <mxGeometry x="211" y="20" width="99" height="60" as="geometry" />
        </mxCell>
        <mxCell id="KH2dmFKL13_Q_JByAnSe-51" value="POWER/ DATA INPUT" style="rounded=0;whiteSpace=wrap;html=1;fillColor=#f8cecc;strokeColor=#b85450;gradientColor=#ea6b66;" parent="KH2dmFKL13_Q_JByAnSe-46" vertex="1">
          <mxGeometry x="350" y="20" width="120" height="60" as="geometry" />
        </mxCell>
        <mxCell id="KH2dmFKL13_Q_JByAnSe-52" value="COMPUTER" style="rounded=0;whiteSpace=wrap;html=1;fillColor=#d5e8d4;strokeColor=#82b366;gradientColor=#97d077;" parent="KH2dmFKL13_Q_JByAnSe-46" vertex="1">
          <mxGeometry x="500" y="20" width="120" height="60" as="geometry" />
        </mxCell>
        <mxCell id="KH2dmFKL13_Q_JByAnSe-53" value="NETWORK DEVICE" style="rounded=0;whiteSpace=wrap;html=1;fillColor=#f5f5f5;gradientColor=#b3b3b3;strokeColor=#666666;" parent="KH2dmFKL13_Q_JByAnSe-46" vertex="1">
          <mxGeometry x="50" y="110" width="120" height="60" as="geometry" />
        </mxCell>
        <mxCell id="KH2dmFKL13_Q_JByAnSe-54" value="BATTERY" style="rounded=0;whiteSpace=wrap;html=1;fillColor=#ffcd28;strokeColor=#d79b00;gradientColor=#ffa500;" parent="KH2dmFKL13_Q_JByAnSe-46" vertex="1">
          <mxGeometry x="225" y="110" width="71" height="60" as="geometry" />
        </mxCell>
      </root>
    </mxGraphModel>
  </diagram>
</mxfile>
